<svg width="24" height="23" viewBox="0 0 24 23" fill="none" xmlns="http://www.w3.org/2000/svg">
<mask id="mask0_510_2821" style="mask-type:luminance" maskUnits="userSpaceOnUse" x="0" y="0" width="24" height="23">
<path d="M23.0835 0.203369H0.420898V22.9896H23.0835V0.203369Z" fill="white"/>
</mask>
<g mask="url(#mask0_510_2821)">
<path d="M0.420898 0.203369H23.0835V22.9896H0.420898V0.203369Z" fill="#E6C803"/>
<path d="M21.2288 17.5551C21.0629 16.5155 20.3886 15.6426 18.3916 14.8281C17.698 14.5076 16.9246 14.278 16.694 13.7495C16.6122 13.4419 16.6015 13.2686 16.6531 13.0823C16.8018 12.478 17.5191 12.2896 18.0878 12.4629C18.454 12.5863 18.8009 12.8701 19.0099 13.3228C19.9879 12.686 19.9858 12.6903 20.6687 12.2528C20.4187 11.8629 20.2852 11.6831 20.1215 11.5163C19.5334 10.8558 18.732 10.5157 17.4502 10.5417C17.2283 10.5698 17.0043 10.6001 16.7824 10.6283C16.1426 10.7907 15.5329 11.1286 15.1754 11.5813C14.1025 12.8051 14.4084 14.9473 15.7139 15.8288C17 16.7992 18.8892 17.0201 19.1305 17.9276C19.3653 19.0388 18.3184 19.3983 17.2779 19.2706C16.5109 19.1103 16.0845 18.7183 15.6234 18.0056C14.7747 18.4995 14.7747 18.4995 13.9022 19.0042C14.109 19.459 14.3265 19.6648 14.6734 20.059C16.315 21.7333 20.4231 21.651 21.1598 19.1168C21.19 19.0301 21.3882 18.4496 21.2288 17.5551ZM12.741 10.6759H10.6213C10.6213 12.517 10.6127 14.3451 10.6127 16.1862C10.6127 17.358 10.673 18.4323 10.4834 18.7616C10.1732 19.4092 9.36965 19.329 9.00345 19.2034C8.63077 19.0193 8.4412 18.7572 8.22147 18.3868C8.16118 18.2807 8.11593 18.1984 8.10082 18.1919C7.52562 18.545 6.95257 18.9002 6.37744 19.2532C6.66393 19.8445 7.08618 20.3579 7.62685 20.6915C8.43472 21.1788 9.52045 21.3282 10.6557 21.0662C11.3947 20.8496 12.0323 20.4012 12.3662 19.7189C12.8488 18.8243 12.7453 17.7414 12.741 16.5436C12.7518 14.5898 12.741 12.6361 12.741 10.6759Z" fill="#323330"/>
</g>
</svg>
