<?xml version="1.0" encoding="UTF-8"?>
<svg version="1.1" xmlns="http://www.w3.org/2000/svg" width="34" height="34">
<path d="M0 0 C11.22 0 22.44 0 34 0 C34 11.22 34 22.44 34 34 C22.78 34 11.56 34 0 34 C0 22.78 0 11.56 0 0 Z M6 5 C5.67 6.32 5.34 7.64 5 9 C6.32 9.33 7.64 9.66 9 10 C9.33 8.68 9.66 7.36 10 6 C8.68 5.67 7.36 5.34 6 5 Z M5 13 C5 18.28 5 23.56 5 29 C6.65 29 8.3 29 10 29 C10 23.72 10 18.44 10 13 C8.35 13 6.7 13 5 13 Z M13 13 C13 18.28 13 23.56 13 29 C14.65 29 16.3 29 18 29 C18.33 25.37 18.66 21.74 19 18 C20.65 17.67 22.3 17.34 24 17 C24 20.96 24 24.92 24 29 C25.65 29 27.3 29 29 29 C29.05429959 27.25034642 29.09292823 25.50020213 29.125 23.75 C29.14820312 22.77546875 29.17140625 21.8009375 29.1953125 20.796875 C28.99558684 17.93680358 28.62664878 16.34540057 27 14 C24.08333333 13 24.08333333 13 21 13 C20.01 13.66 19.02 14.32 18 15 C17.67 14.34 17.34 13.68 17 13 C15.68 13 14.36 13 13 13 Z " fill="#0A66C2" transform="translate(0,0)"/>
</svg>
