<?xml version="1.0" encoding="UTF-8"?>
<svg version="1.1" xmlns="http://www.w3.org/2000/svg" width="98" height="51">
<path d="M0 0 C32.34 0 64.68 0 98 0 C98 16.83 98 33.66 98 51 C65.66 51 33.32 51 0 51 C0 34.17 0 17.34 0 0 Z " fill="#F9FAF9" transform="translate(0,0)"/>
<path d="M0 0 C1.94238281 0.17822266 1.94238281 0.17822266 4 1 C5.09667969 2.81005859 5.09667969 2.81005859 5.921875 5.1484375 C6.22480469 5.98890625 6.52773438 6.829375 6.83984375 7.6953125 C7.14019531 8.57960938 7.44054688 9.46390625 7.75 10.375 C8.06582031 11.2515625 8.38164063 12.128125 8.70703125 13.03125 C11 19.52303166 11 19.52303166 11 23 C10.01 22.67 9.02 22.34 8 22 C6.8125 19.4375 6.8125 19.4375 6 17 C2.7 16.67 -0.6 16.34 -4 16 C-4.33 17.98 -4.66 19.96 -5 22 C-5.99 22.33 -6.98 22.66 -8 23 C-4.5625 4.5625 -4.5625 4.5625 0 0 Z " fill="#221C2A" transform="translate(32,12)"/>
<path d="M0 0 C2.3129482 2.3129482 2.49580975 3.47904875 3.125 6.625 C3.29257812 7.44226563 3.46015625 8.25953125 3.6328125 9.1015625 C3.75398438 9.72804688 3.87515625 10.35453125 4 11 C3.01 10.67 2.02 10.34 1 10 C-0.1875 7.4375 -0.1875 7.4375 -1 5 C-4.3 4.67 -7.6 4.34 -11 4 C-11.33 5.98 -11.66 7.96 -12 10 C-12.99 10.33 -13.98 10.66 -15 11 C-14.745504 9.51793505 -14.47088238 8.03931385 -14.1875 6.5625 C-14.03667969 5.73878906 -13.88585937 4.91507813 -13.73046875 4.06640625 C-13.48941406 3.38449219 -13.24835937 2.70257812 -13 2 C-10.1062501 1.0354167 -8.36874995 0.92198697 -5.375 1 C-3.91715517 1.03774356 -2.45759317 1.04645715 -1 1 C-0.67 0.67 -0.34 0.34 0 0 Z " fill="#18141C" transform="translate(39,24)"/>
<path d="M0 0 C0 0.99 0 1.98 0 3 C-1.4562545 3.67119549 -2.91507867 4.33681807 -4.375 5 C-5.59316406 5.556875 -5.59316406 5.556875 -6.8359375 6.125 C-9 7 -9 7 -11 7 C-11 7.66 -11 8.32 -11 9 C-9.948125 9.1546875 -9.948125 9.1546875 -8.875 9.3125 C-5.60862353 10.09359003 -2.9528148 11.42058743 0 13 C0 13.99 0 14.98 0 16 C-3.54243452 14.63408831 -6.92627929 13.09068516 -10.3125 11.375 C-11.19550781 10.92898437 -12.07851562 10.48296875 -12.98828125 10.0234375 C-13.65214844 9.68570312 -14.31601563 9.34796875 -15 9 C-15 8.34 -15 7.68 -15 7 C-12.87767021 5.82823482 -10.75242209 4.66245215 -8.625 3.5 C-7.72007813 2.99919922 -7.72007813 2.99919922 -6.796875 2.48828125 C-2.2265625 0 -2.2265625 0 0 0 Z " fill="#2C1F1F" transform="translate(20,15)"/>
<path d="M0 0 C0.99 0 1.98 0 3 0 C3 7.59 3 15.18 3 23 C2.01 23 1.02 23 0 23 C0 15.41 0 7.82 0 0 Z " fill="#2D2D42" transform="translate(46,12)"/>
<path d="M0 0 C4.62 2.31 9.24 4.62 14 7 C13 10 13 10 10.05859375 11.60546875 C8.26615234 12.38857422 8.26615234 12.38857422 6.4375 13.1875 C5.23996094 13.71730469 4.04242188 14.24710938 2.80859375 14.79296875 C1.88175781 15.19128906 0.95492187 15.58960938 0 16 C0 15.01 0 14.02 0 13 C1.28913487 12.32845067 2.58140204 11.66291141 3.875 11 C4.59429687 10.62875 5.31359375 10.2575 6.0546875 9.875 C8 9 8 9 10 9 C10 8.34 10 7.68 10 7 C9.0925 6.71125 8.185 6.4225 7.25 6.125 C4.67797092 5.23468224 2.38653234 4.28505587 0 3 C0 2.01 0 1.02 0 0 Z " fill="#16171C" transform="translate(79,18)"/>
<path d="M0 0 C0.66 0 1.32 0 2 0 C1.02045429 6.16537594 -0.17964252 12.03021117 -2.26953125 17.91796875 C-3.31913681 20.90962523 -4.15500184 23.94500667 -5 27 C-5.66 27 -6.32 27 -7 27 C-1.72897196 1.72897196 -1.72897196 1.72897196 0 0 Z " fill="#3D201C" transform="translate(73,11)"/>
<path d="M0 0 C2.3129482 2.3129482 2.49580975 3.47904875 3.125 6.625 C3.29257812 7.44226563 3.46015625 8.25953125 3.6328125 9.1015625 C3.81457031 10.04128906 3.81457031 10.04128906 4 11 C1.69 11 -0.62 11 -3 11 C-2.44894091 7.0507432 -1.61064629 3.65079826 0 0 Z " fill="#E8F0EB" transform="translate(33,15)"/>
<path d="M0 0 C0.33 0.66 0.66 1.32 1 2 C2.66666667 2.33333333 4.33333333 2.66666667 6 3 C8.02237052 3.95394836 10.0282696 4.94535351 12 6 C12 6.99 12 7.98 12 9 C7.69235185 7.43358249 3.93828536 5.31663844 0 3 C0 2.01 0 1.02 0 0 Z " fill="#1B1827" transform="translate(8,22)"/>
<path d="M0 0 C0.66 0.99 1.32 1.98 2 3 C-1.96 4.98 -5.92 6.96 -10 9 C-10 8.01 -10 7.02 -10 6 C-8.71086513 5.32845067 -7.41859796 4.66291141 -6.125 4 C-5.40570313 3.62875 -4.68640625 3.2575 -3.9453125 2.875 C-2 2 -2 2 0 2 C0 1.34 0 0.68 0 0 Z " fill="#1B1B22" transform="translate(89,25)"/>
<path d="M0 0 C0.33 0 0.66 0 1 0 C0.67 3.3 0.34 6.6 0 10 C-0.99 9.67 -1.98 9.34 -3 9 C-2.01 6.03 -1.02 3.06 0 0 Z " fill="#43281E" transform="translate(30,16)"/>
<path d="M0 0 C0.66 0 1.32 0 2 0 C1.34 3.63 0.68 7.26 0 11 C-0.33 11 -0.66 11 -1 11 C-1.02688151 9.35425434 -1.04634123 7.70838587 -1.0625 6.0625 C-1.07410156 5.14597656 -1.08570312 4.22945312 -1.09765625 3.28515625 C-1 1 -1 1 0 0 Z " fill="#262943" transform="translate(73,11)"/>
<path d="M0 0 C3.465 1.485 3.465 1.485 7 3 C7 3.66 7 4.32 7 5 C2.25 4.125 2.25 4.125 0 3 C0 2.01 0 1.02 0 0 Z " fill="#111116" transform="translate(79,18)"/>
</svg>
