<svg width="29" height="22" viewBox="0 0 29 22" fill="none" xmlns="http://www.w3.org/2000/svg">
<mask id="mask0_510_2768" style="mask-type:luminance" maskUnits="userSpaceOnUse" x="0" y="0" width="29" height="22">
<path d="M28.1981 0H0.965332V21.7H28.1981V0Z" fill="white"/>
</mask>
<g mask="url(#mask0_510_2768)">
<path d="M0.965332 11.8364V0.00244141L11.1776 5.9194V9.86404L4.36943 5.9194V13.8086L0.965332 11.8364Z" fill="#00B0FF"/>
<path d="M11.1777 5.9194L21.39 0.00244141V11.8364L14.5818 15.7809L11.1777 13.8086L17.9859 9.86404V5.9194L11.1777 9.86404V5.9194Z" fill="#0081CB"/>
<path d="M11.1777 13.8086V17.7532L17.9859 21.6978V17.7532L11.1777 13.8086Z" fill="#00B0FF"/>
<path d="M17.9858 21.6979L28.1981 15.7809V7.89172L24.794 9.86404V13.8086L17.9858 17.7533V21.6979ZM24.794 5.9194V1.97476L28.1981 0.00244141V3.94708L24.794 5.9194Z" fill="#0081CB"/>
</g>
</svg>
