<?xml version="1.0" encoding="UTF-8"?>
<svg version="1.1" xmlns="http://www.w3.org/2000/svg" width="512" height="512">
<path d="M0 0 C0.94456401 -0.00569124 1.88912802 -0.01138248 2.86231518 -0.01724619 C3.89692536 -0.01842606 4.93153555 -0.01960594 5.99749756 -0.02082157 C7.09909116 -0.02590939 8.20068476 -0.03099721 9.33565998 -0.03623921 C13.04032072 -0.05198055 16.74496193 -0.06049327 20.449646 -0.06893253 C22.42538286 -0.07604028 24.40111975 -0.08315434 26.37685472 -0.09077286 C35.01797088 -0.12407435 43.65909888 -0.14561521 52.30025816 -0.16397271 C54.55138016 -0.16876977 56.80250169 -0.17375285 59.0536232 -0.17877793 C73.04168502 -0.20975343 87.02975103 -0.23643054 101.01783752 -0.25319672 C104.2569886 -0.25714603 107.4961396 -0.26114905 110.73529053 -0.2652216 C111.5403374 -0.26622996 112.34538427 -0.26723832 113.1748265 -0.26827724 C126.2063104 -0.28527193 139.23760399 -0.32636853 152.26899505 -0.37724458 C165.65756595 -0.42908369 179.04603915 -0.45814731 192.43470955 -0.4653936 C199.9480855 -0.47004815 207.46114992 -0.48471794 214.97442627 -0.5251379 C221.37540131 -0.55953263 227.77600856 -0.57333938 234.17707068 -0.56071376 C237.4396042 -0.55490843 240.70120227 -0.56190966 243.96365166 -0.5888834 C270.62776472 -0.79749832 270.62776472 -0.79749832 282.309021 9.5148077 C287.91865994 15.67172849 290.43103683 22.47992186 290.44324207 30.73075962 C290.4455943 31.40687426 290.44794653 32.0829889 290.45037004 32.77959186 C290.45706538 35.06159586 290.45660166 37.34354299 290.45619202 39.62555599 C290.45949031 41.27165195 290.46321581 42.91774711 290.4673335 44.56384122 C290.47736558 49.1003184 290.48107223 53.63678234 290.48372281 58.17326903 C290.4876223 63.06096539 290.4972009 67.94865124 290.50593567 72.8363409 C290.5257105 84.64687733 290.53576774 96.45741462 290.54466346 108.26796347 C290.54904484 113.8275747 290.55441205 119.38718498 290.55965233 124.94679546 C290.57666589 143.42468283 290.59116041 161.9025696 290.59840107 180.3804636 C290.60031102 185.17703534 290.60223134 189.97360707 290.60418701 194.77017879 C290.60467075 195.96236741 290.60515449 197.15455602 290.60565289 198.38287155 C290.61395444 217.69861144 290.6392929 237.01428942 290.67176769 256.33000226 C290.70482563 276.15394949 290.7228487 295.97786525 290.72604531 315.80184019 C290.72821162 326.93512044 290.73697789 338.06831042 290.76250648 349.20156384 C290.78419622 358.68265641 290.79227241 368.16363681 290.7825397 377.64475138 C290.77798996 382.48231145 290.77992043 387.31963997 290.79930115 392.15716839 C290.81689747 396.58756442 290.81596382 401.01755938 290.80040386 405.44795947 C290.79802241 407.04896632 290.80237916 408.65000069 290.81423251 410.25096543 C290.87212154 418.58747191 290.78919038 425.8480804 286.309021 433.1398077 C285.91036262 433.80045526 285.51170425 434.46110282 285.10096532 435.14177001 C280.43751123 442.52276093 273.64400147 446.14202951 265.309021 448.1398077 C261.54807337 448.54151727 257.82355843 448.54981328 254.04377747 448.52748775 C252.38898751 448.53556606 252.38898751 448.53556606 250.70076746 448.54380757 C247.02067256 448.55806389 243.34093854 448.55098894 239.66082764 448.54386044 C237.01564911 448.54956519 234.37049609 448.5564297 231.72532654 448.56465816 C225.29622625 448.58181531 218.86722383 448.58269265 212.4381066 448.57744526 C207.2105174 448.57339675 201.98295702 448.57485519 196.75536919 448.58019352 C196.01012829 448.58094194 195.26488739 448.58169036 194.49706344 448.58246147 C192.98290455 448.58399301 191.46874567 448.58553136 189.9545868 448.58707643 C175.76951968 448.60079018 161.58450779 448.59537159 147.39944195 448.58389122 C134.4348628 448.57395887 121.47042636 448.58690151 108.50586922 448.61082541 C95.17815491 448.63523328 81.85050703 448.64482021 68.52277082 448.63817269 C61.04651611 448.63468436 53.57037114 448.63688701 46.09413338 448.65442371 C39.73021616 448.66916679 33.36648599 448.66975372 27.00257237 448.6523528 C23.75868345 448.64385775 20.51519598 448.64383626 17.27131271 448.65700436 C13.74764432 448.67021431 10.22487809 448.6586652 6.70124817 448.64101315 C5.68595962 448.65061815 4.67067107 448.66022316 3.62461621 448.67011923 C-5.33359984 448.57804608 -13.20496169 446.17277768 -20.003479 440.1398077 C-20.78336182 439.4798077 -21.56324463 438.8198077 -22.36676025 438.1398077 C-29.77552474 428.57689825 -30.41548296 418.30172634 -30.32589722 406.66788387 C-30.33166789 405.02440022 -30.33961533 403.38092304 -30.34953344 401.73745918 C-30.37030029 397.24973439 -30.36013819 392.76254497 -30.34460235 388.2748189 C-30.33325091 383.42400333 -30.35077031 378.57327736 -30.36450195 373.72247982 C-30.38669849 364.23100682 -30.38194914 354.73973186 -30.36743875 345.2482512 C-30.3561324 337.53218575 -30.35462165 329.81617569 -30.36005783 322.10010433 C-30.360824 321.00060111 -30.36159016 319.90109789 -30.36237954 318.76827639 C-30.36397822 316.53443756 -30.36559929 314.30059874 -30.3672425 312.06675994 C-30.38148951 291.13546684 -30.36512371 270.20428335 -30.33824067 249.27300823 C-30.31590287 231.32523286 -30.31978329 213.37761921 -30.34283447 195.42984676 C-30.36961097 174.57185136 -30.38011631 153.71395196 -30.36477315 132.85594177 C-30.36318046 130.63046489 -30.36160861 128.40498799 -30.36005783 126.17951107 C-30.35928645 125.08462358 -30.35851508 123.98973609 -30.35772032 122.8616702 C-30.35340888 115.15767747 -30.3606779 107.4537458 -30.3724556 99.74976254 C-30.38649966 90.35712712 -30.3826405 80.96470055 -30.35605188 71.57208896 C-30.34293942 66.78267188 -30.33771739 61.99360261 -30.35429764 57.20418835 C-30.36926359 52.81459329 -30.3609002 48.42566645 -30.33440988 44.0361315 C-30.32885295 42.45352128 -30.3316023 40.8708539 -30.34378882 39.28828084 C-30.42340915 28.08370724 -29.23549998 17.85297113 -21.440979 9.2023077 C-15.23957797 3.65225732 -8.3758097 0.02951549 0 0 Z M22.83747196 72.05088043 C21.22928268 74.24878571 20.47344931 75.42674055 20.309021 78.1398077 C21.02718907 80.881904 21.54002374 82.58191396 23.8695612 84.27195168 C27.42945305 85.53840976 30.9212939 85.4182602 34.65287781 85.40050411 C35.50214657 85.40432966 36.35141533 85.40815521 37.22641951 85.41209668 C40.07685129 85.42242902 42.92708172 85.41843409 45.77752686 85.4144659 C47.8192412 85.41881224 49.86095391 85.42399512 51.90266418 85.42995358 C57.45219116 85.44336302 63.00165011 85.4439201 68.55119014 85.44139028 C73.18109168 85.44032192 77.81097939 85.44520044 82.44087797 85.4499957 C93.36169851 85.46109754 104.28248465 85.46152443 115.20330811 85.45548153 C126.47660766 85.4494396 137.74978247 85.46175681 149.02306074 85.4830516 C158.69618366 85.50065316 168.36926683 85.50667125 178.04240519 85.50341386 C183.82226455 85.50159861 189.60203492 85.50426129 195.38187981 85.5181284 C200.81637113 85.53067864 206.25066763 85.52878918 211.68515587 85.51571751 C213.68101822 85.51334609 215.67689416 85.51610655 217.67274094 85.52434063 C220.39478193 85.53476194 223.11616359 85.52674464 225.83818054 85.5140295 C226.6302051 85.52140379 227.42222966 85.52877807 228.23825496 85.53637582 C232.74511355 85.49200788 235.78866071 85.0506916 239.309021 82.1398077 C240.64562244 78.78387908 240.64562244 78.78387908 240.309021 75.1398077 C237.56439265 71.40273126 236.04694831 70.25882956 231.42530727 69.51339531 C229.87117522 69.48727156 228.31643425 69.48861946 226.76225281 69.51161861 C225.90325695 69.50452423 225.04426109 69.49742984 224.15923506 69.49012047 C221.28154353 69.47252144 218.40519925 69.49065477 215.52752686 69.50870419 C213.46433395 69.50356614 211.40114542 69.49628573 209.33796692 69.48702145 C203.73470244 69.46848596 198.13191296 69.48145935 192.52866817 69.50111175 C186.66887136 69.51747948 180.80910507 69.50868806 174.94929504 69.50359249 C165.10940957 69.49906981 155.26971408 69.51495323 145.42987061 69.54288387 C134.04684172 69.57494534 122.66415536 69.5749171 111.28110212 69.5576691 C100.3380439 69.54181732 89.39511149 69.54852834 78.45205879 69.56560612 C73.79142478 69.57248625 69.13089134 69.57143431 64.47025871 69.56406116 C58.9847826 69.55641212 53.49969736 69.5684795 48.01428795 69.59591007 C45.99866649 69.60280913 43.98300863 69.60287568 41.96738815 69.59569454 C39.22075462 69.58703501 36.47533714 69.60289614 33.72880554 69.625144 C32.92676836 69.61690324 32.12473119 69.60866247 31.29838985 69.60017198 C27.71462241 69.65393717 25.71509882 69.82581666 22.83747196 72.05088043 Z M22.309021 170.1398077 C20.52866559 172.56756507 20.27607711 173.68957462 20.496521 176.7023077 C21.37786431 179.34633765 22.11797288 180.45438608 24.309021 182.1398077 C28.06006589 183.390156 31.54967869 183.28118518 35.45669556 183.27352047 C36.29694279 183.27578603 37.13719002 183.27805158 38.00289929 183.28038579 C40.82874926 183.28673444 43.65455138 183.28589587 46.48040771 183.28507137 C48.50226911 183.28806233 50.52412993 183.29146471 52.54598999 183.29524899 C58.0459757 183.30409972 63.54594587 183.30642755 69.04593801 183.30706477 C73.63353488 183.30801311 78.2211281 183.31169054 82.80872357 183.31523687 C93.6302764 183.32338552 104.45182092 183.32582073 115.27337646 183.32511044 C126.44494797 183.32450954 137.61647121 183.33506281 148.78803051 183.3508541 C158.37195624 183.36391963 167.95586618 183.36929475 177.53980076 183.36865503 C183.26711988 183.36839975 188.99439612 183.37126744 194.72170639 183.38183308 C200.10771975 183.39149744 205.49364909 183.39160465 210.87966537 183.38431644 C212.85778933 183.38326853 214.83591847 183.3856457 216.81403351 183.3916769 C219.5119149 183.39937058 222.20950425 183.39476941 224.90737915 183.38704586 C226.08476632 183.39476121 226.08476632 183.39476121 227.2859391 183.40263242 C231.37849773 183.37669713 234.69924739 183.15458546 238.309021 181.1398077 C240.63651444 177.64856753 240.81201416 176.24758519 240.309021 172.1398077 C238.07695669 169.29200151 236.75909101 168.28983104 233.309021 167.1398077 C230.58471167 167.03957974 227.8858713 166.99637519 225.16134644 166.99936581 C224.3210992 166.99639468 223.48085197 166.99342356 222.6151427 166.99036241 C219.78929657 166.98166539 216.96349275 166.98016632 214.13763428 166.97867489 C212.11577259 166.97404747 210.09391179 166.96902292 208.072052 166.96362972 C202.57206967 166.95049747 197.07209954 166.9440593 191.57210398 166.93961906 C188.13793046 166.93669003 184.7037603 166.93258558 181.26958847 166.92811489 C170.5305343 166.91443859 159.79148778 166.90477224 149.0524255 166.900913 C136.64490633 166.89642996 124.23749719 166.87887118 111.83001149 166.84991241 C102.24608576 166.82831807 92.66219104 166.81820994 83.07824123 166.81687188 C77.35089636 166.81582236 71.62365491 166.80988314 65.8963356 166.79205227 C60.51029411 166.77561019 55.12443421 166.77339728 49.73837662 166.78219128 C47.76024897 166.78296369 45.78211171 166.77859215 43.80400848 166.76873302 C41.10600862 166.75607313 38.40865774 166.76185776 35.71066284 166.77231503 C34.92573806 166.76425862 34.14081328 166.75620222 33.33210289 166.74790168 C28.81077666 166.78895923 25.91133352 167.3531333 22.309021 170.1398077 Z M23.309021 267.1398077 C21.22925387 269.30052237 21.22925387 269.30052237 20.309021 272.1398077 C20.57100365 275.34282066 20.57100365 275.34282066 22.309021 278.1398077 C27.05428114 281.19931019 31.28126865 281.56812872 36.77949524 281.52075863 C37.61822219 281.5254386 38.45694915 281.53011857 39.32109207 281.53494036 C42.12395252 281.54688068 44.92632316 281.53743694 47.72918701 281.52799129 C49.74164108 281.53205739 51.75409292 281.53739948 53.76654053 281.54392147 C59.2271463 281.55759542 64.687582 281.55229626 70.14819074 281.54278421 C75.86203803 281.53518913 81.57587076 281.54223272 87.28971863 281.54694271 C96.8839886 281.55240025 106.47818928 281.5452082 116.07244873 281.53092098 C127.1674341 281.51458986 138.26225412 281.51988639 149.35723549 281.5364002 C158.88178631 281.55000954 168.40628733 281.55193756 177.93084472 281.54408419 C183.62012343 281.53940525 189.30932438 281.53878904 194.9985981 281.54869366 C200.34612656 281.55735313 205.69344158 281.55135995 211.04094696 281.53401089 C213.00455559 281.53004081 214.96818216 281.53118897 216.93178368 281.53779888 C219.60994259 281.54598369 222.28741533 281.53572996 224.9655304 281.52075863 C226.13401161 281.53079688 226.13401161 281.53079688 227.3260985 281.54103792 C233.07459884 281.47860738 236.282763 280.1660657 240.309021 276.1398077 C240.80944246 273.22442741 240.80944246 273.22442741 240.309021 270.1398077 C238.07695669 267.29200151 236.75909101 266.28983104 233.309021 265.1398077 C230.59724133 265.04173236 227.91121454 265.00074842 225.1993103 265.00609493 C224.36314662 265.00382938 223.52698294 265.00156382 222.66548097 264.99922961 C219.85345046 264.99288112 217.04146805 264.99371952 214.22943115 264.99454403 C212.21742185 264.99155307 210.20541312 264.98815068 208.19340515 264.98436642 C202.72027807 264.97551578 197.24716661 264.97318786 191.77403307 264.97255063 C187.20880415 264.97160229 182.64357889 264.96792484 178.07835138 264.96437854 C167.30953625 264.95622992 156.54072948 264.95379467 145.77191162 264.95450497 C134.65487159 264.95510586 123.53788006 264.94455262 112.4208523 264.9287613 C102.8836353 264.91569566 93.34643416 264.91032066 83.80920827 264.91096038 C78.10983475 264.91121565 72.41050431 264.90834813 66.71113968 264.89778233 C61.35139101 264.88811778 55.99172678 264.88801088 50.63197517 264.89529896 C48.66352656 264.89634685 46.69507273 264.89396983 44.72663307 264.8879385 C42.04188838 264.88024449 39.35743714 264.8848462 36.67269897 264.89256954 C35.50114822 264.8848542 35.50114822 264.8848542 34.30592978 264.87698299 C30.21106209 264.90305807 26.94648067 265.18934999 23.309021 267.1398077 Z M21.309021 367.1398077 C20.14235433 368.97314103 20.14235433 368.97314103 20.309021 371.1398077 C21.90416884 375.42592018 21.90416884 375.42592018 25.309021 378.1398077 C28.04356023 378.24649763 30.75312626 378.2920226 33.48829651 378.29370785 C34.34402353 378.2980901 35.19975054 378.30247236 36.08140868 378.3069874 C38.96563122 378.32040456 41.8498232 378.32656077 44.73406982 378.33267879 C46.79519286 378.34057739 48.85631451 378.34884619 50.91743469 378.35745907 C57.70029372 378.38370466 64.48315902 378.39898806 71.26605225 378.4132452 C73.59813631 378.41860361 75.93022033 378.42398112 78.26230431 378.42937756 C87.96020503 378.45100895 97.65810408 378.46974723 107.35602283 378.48099995 C121.27015826 378.49724928 135.18401487 378.53044817 149.09804517 378.58740079 C158.87302975 378.62605236 168.6479396 378.6456269 178.42299861 378.65092051 C184.26557811 378.65458018 190.10786042 378.66666712 195.95035744 378.69902325 C201.44563171 378.72901997 206.94042763 378.73544562 212.43576622 378.72363949 C214.45422012 378.72341806 216.47269568 378.73178024 218.49107361 378.74929333 C221.24422794 378.77188428 223.99563289 378.7637372 226.74879456 378.74780941 C227.54996525 378.7616915 228.35113595 378.77557359 229.17658454 378.78987634 C233.19631355 378.73246708 235.10414117 378.29624489 238.33622265 375.82837009 C240.64750173 373.20787278 240.64750173 373.20787278 240.434021 369.5148077 C239.62653791 366.09880097 239.62653791 366.09880097 237.26771545 364.4531002 C233.43124765 362.75018546 229.96394996 362.72084458 225.84490967 362.75212765 C224.99478648 362.74674211 224.1446633 362.74135657 223.2687788 362.73580784 C220.42136836 362.7215051 217.57442127 362.72863766 214.72698975 362.73575497 C212.685126 362.73005266 210.64326543 362.72308894 208.60140991 362.71495724 C203.05604671 362.69699658 197.51084149 362.69819955 191.96545792 362.70389962 C187.33798549 362.70698688 182.71054361 362.70090427 178.08307552 362.69486088 C167.16845605 362.68080807 156.25391483 362.6823836 145.33929443 362.69376278 C134.07331742 362.70524859 122.80757832 362.69116216 111.54163265 362.6643663 C101.87272684 362.64222871 92.20389583 362.63556744 82.53496647 362.64144272 C76.758452 362.64481767 70.98209012 362.6423613 65.20559692 362.62519169 C59.77513971 362.60975531 54.34503583 362.61364143 48.91459274 362.63249683 C46.92034346 362.63619169 44.92606819 362.63304826 42.9318428 362.62261105 C40.2118622 362.60946095 37.49306166 362.62089521 34.77313232 362.63860226 C33.98178988 362.62899725 33.19044744 362.61939224 32.37512493 362.60949618 C27.39679867 362.6762962 24.79590238 363.56312768 21.309021 367.1398077 Z " fill="#EB705F" transform="translate(63.69097900390625,31.86019229888916)"/>
<path d="M0 0 C9.9 0 19.8 0 30 0 C30 81.51 30 163.02 30 247 C20.1 247 10.2 247 0 247 C0 165.49 0 83.98 0 0 Z " fill="#EC715F" transform="translate(448,119)"/>
<path d="M0 0 C9.24 0 18.48 0 28 0 C28 81.51 28 163.02 28 247 C18.76 247 9.52 247 0 247 C0 165.49 0 83.98 0 0 Z " fill="#EB7160" transform="translate(405,119)"/>
<path d="M0 0 C2.06547162 0.00850088 4.12816029 -0.02030149 6.19335938 -0.05200195 C14.82166293 -0.09902533 23.08436055 0.35404146 29.80810547 6.31347656 C36.04275946 12.73150273 39.15875249 20.13969825 39.15380859 29.05725098 C39.12311279 30.38085632 39.12311279 30.38085632 39.09179688 31.73120117 C39.08776855 32.56744019 39.08374023 33.4036792 39.07958984 34.26525879 C39.05888635 37.34658195 39.0030433 40.42758883 38.95117188 43.50854492 C38.86867188 50.41791992 38.78617187 57.32729492 38.70117188 64.44604492 C14.61117187 64.44604492 -9.47882813 64.44604492 -34.29882812 64.44604492 C-34.42257812 57.59854492 -34.54632813 50.75104492 -34.67382812 43.69604492 C-34.72845215 41.56039062 -34.78307617 39.42473633 -34.83935547 37.22436523 C-35.01168932 25.6496071 -34.59259429 16.48943655 -26.50732422 7.44116211 C-19.05147988 0.10716783 -9.88073932 -0.06192989 0 0 Z " fill="#EB705F" transform="translate(439.298828125,39.553955078125)"/>
<path d="M0 0 C23.43 0 46.86 0 71 0 C69.87155963 10.1559633 69.87155963 10.1559633 68 15 C67.649375 15.928125 67.29875 16.85625 66.9375 17.8125 C66 20 66 20 65 21 C63.15881971 21.09381302 61.31402359 21.11743954 59.47045898 21.11352539 C58.28931015 21.11344986 57.10816132 21.11337433 55.89122009 21.11329651 C54.6058284 21.10813522 53.32043671 21.10297394 51.99609375 21.09765625 C50.68794205 21.0962413 49.37979034 21.09482635 48.03199768 21.09336853 C44.54837141 21.0895441 41.06478661 21.07971446 37.58117676 21.06866455 C34.02873292 21.05844882 30.47628241 21.05387056 26.92382812 21.04882812 C19.94920168 21.03809212 12.97460283 21.0210166 6 21 C5.35773885 19.41472439 4.71750861 17.82862588 4.078125 16.2421875 C3.72137695 15.35901855 3.36462891 14.47584961 2.99707031 13.56591797 C1.210186 8.96744733 0 4.9947611 0 0 Z " fill="#EB7160" transform="translate(406,381)"/>
<path d="M0 0 C14.85 0 29.7 0 45 0 C42.91880775 6.24357676 40.86924433 11.91608313 38.125 17.8125 C37.79886719 18.54919922 37.47273438 19.28589844 37.13671875 20.04492188 C34.74496156 25.19604095 32.21189642 28.39405179 27 31 C25.046875 31.23828125 25.046875 31.23828125 22.75 31.3125 C22.00234375 31.34988281 21.2546875 31.38726562 20.484375 31.42578125 C16.82026697 30.79781305 14.85489266 29.37279997 12 27 C10.32064254 24.56669572 9.09597203 21.99976207 7.875 19.3125 C7.53662109 18.60077637 7.19824219 17.88905273 6.84960938 17.15576172 C5.88294557 15.1111467 4.93911396 13.05738035 4 11 C3.53851563 10.01644531 3.07703125 9.03289062 2.6015625 8.01953125 C0 2.3643617 0 2.3643617 0 0 Z " fill="#EC705F" transform="translate(419,417)"/>
</svg>
