<svg width="53" height="50" viewBox="0 0 53 50" fill="none" xmlns="http://www.w3.org/2000/svg">
<g clip-path="url(#clip0_1_431)">
<path d="M36.7234 34.7813C38.6793 34.5809 40.1631 32.9121 40.0956 30.9094C40.0283 28.9069 38.342 27.3048 36.3187 27.3048H36.1839C34.0929 27.3716 32.4743 29.1071 32.5418 31.1764C32.6093 32.1778 33.0139 33.0455 33.6209 33.6463C31.3278 38.1189 27.8207 41.3898 22.56 44.1266C18.9854 45.9957 15.276 46.6633 11.5666 46.1961C8.53157 45.7956 6.171 44.4606 4.687 42.2575C2.5289 38.9867 2.32663 35.4486 4.14768 31.9108C5.4292 29.3741 7.45231 27.505 8.73384 26.5704C8.46408 25.7027 8.05933 24.2341 7.85706 23.1662C-1.92248 30.1753 -0.910718 39.6542 2.05687 44.1266C4.28246 47.4645 8.80133 49.5338 13.7922 49.5338C15.141 49.5338 16.4899 49.4002 17.8389 49.0666C26.4719 47.3977 33.0141 42.3243 36.7234 34.7813ZM48.5938 26.5038C43.4679 20.5627 35.9142 17.2919 27.2812 17.2919H26.2021C25.5951 16.0903 24.3136 15.2891 22.8973 15.2891H22.7623C20.6717 15.3559 19.0531 17.0915 19.1204 19.161C19.1879 21.1635 20.8739 22.7656 22.8973 22.7656H23.032C24.5158 22.6988 25.7974 21.7642 26.3369 20.4959H27.5509C32.6768 20.4959 37.5327 21.9644 41.9168 24.8349C45.2889 27.0378 47.717 29.9083 49.0658 33.3793C50.2124 36.183 50.1449 38.9199 48.9308 41.2564C47.0425 44.7942 43.8726 46.7301 39.691 46.7301C36.9932 46.7301 34.4304 45.9289 33.0813 45.3282C32.3396 45.9957 30.9905 47.0637 30.0463 47.7315C32.9466 49.0664 35.9142 49.8008 38.7468 49.8008C45.2215 49.8008 50.0101 46.2627 51.8311 42.7249C53.787 38.8531 53.652 32.1778 48.5938 26.5038ZM14.3318 35.9158C14.3992 37.9185 16.0853 39.5204 18.1086 39.5204H18.2436C20.3344 39.4538 21.953 37.7181 21.8855 35.6488C21.8182 33.6461 20.1319 32.0442 18.1086 32.0442H17.9739C17.8389 32.0442 17.6364 32.0442 17.5018 32.1108C14.7365 27.5716 13.59 22.632 13.9947 17.2916C14.2643 13.2864 15.6133 9.81519 17.9739 6.94472C19.9297 4.47483 23.7066 3.27328 26.2696 3.20669C33.4186 3.0731 36.4535 11.8845 36.6559 15.4225C37.5327 15.6227 39.0165 16.0901 40.0283 16.4239C39.2188 5.60999 32.4743 0.00263977 25.9998 0.00263977C19.9297 0.00263977 14.3318 4.34164 12.106 10.75C9.0036 19.2944 11.0269 27.505 14.8038 33.9801C14.4667 34.4473 14.2643 35.1816 14.3318 35.916V35.9158Z" fill="#764ABC"/>
</g>
<defs>
<clipPath id="clip0_1_431">
<rect width="53" height="50" fill="white"/>
</clipPath>
</defs>
</svg>
